<svg xmlns="http://www.w3.org/2000/svg" viewBox="0 0 320 240" shape-rendering="crispEdges">
  <rect width="320" height="240" fill="#1a2230"/>
  <rect y="24" width="320" height="96" fill="#24334d"/>
  <rect y="120" width="320" height="120" fill="#111317"/>

  <rect x="96" y="36" width="128" height="16" fill="#ffd66b"/>
  <rect x="80" y="52" width="160" height="16" fill="#ffd66b"/>
  <rect x="72" y="68" width="176" height="16" fill="#ffd66b"/>
  <rect x="64" y="84" width="192" height="16" fill="#ff8ba7"/>
  <rect x="80" y="100" width="160" height="8" fill="#ff8ba7"/>

  <rect x="32" y="160" width="16" height="16" fill="#7cffbe"/>
  <rect x="48" y="144" width="16" height="16" fill="#7cffbe"/>
  <rect x="64" y="128" width="16" height="16" fill="#7cffbe"/>
  <rect x="80" y="112" width="16" height="16" fill="#7cffbe"/>
  <rect x="96" y="128" width="16" height="16" fill="#7cffbe"/>
  <rect x="112" y="144" width="16" height="16" fill="#7cffbe"/>
  <rect x="128" y="160" width="16" height="16" fill="#7cffbe"/>

  <rect x="96" y="160" width="16" height="16" fill="#8cc9ff"/>
  <rect x="112" y="144" width="16" height="16" fill="#8cc9ff"/>
  <rect x="128" y="128" width="16" height="16" fill="#8cc9ff"/>
  <rect x="144" y="112" width="16" height="16" fill="#8cc9ff"/>
  <rect x="160" y="96" width="16" height="16" fill="#8cc9ff"/>
  <rect x="176" y="112" width="16" height="16" fill="#8cc9ff"/>
  <rect x="192" y="128" width="16" height="16" fill="#8cc9ff"/>
  <rect x="208" y="144" width="16" height="16" fill="#8cc9ff"/>
  <rect x="224" y="160" width="16" height="16" fill="#8cc9ff"/>

  <rect x="184" y="160" width="16" height="16" fill="#ff8ba7"/>
  <rect x="200" y="144" width="16" height="16" fill="#ff8ba7"/>
  <rect x="216" y="128" width="16" height="16" fill="#ff8ba7"/>
  <rect x="232" y="112" width="16" height="16" fill="#ff8ba7"/>
  <rect x="248" y="128" width="16" height="16" fill="#ff8ba7"/>
  <rect x="264" y="144" width="16" height="16" fill="#ff8ba7"/>
  <rect x="280" y="160" width="16" height="16" fill="#ff8ba7"/>

  <rect y="176" width="320" height="16" fill="#0c0e14"/>
  <rect y="192" width="320" height="16" fill="#12161c"/>
  <rect y="208" width="320" height="16" fill="#0c0e14"/>
  <rect y="224" width="320" height="16" fill="#12161c"/>
</svg>
