<svg xmlns="http://www.w3.org/2000/svg" viewBox="0 0 320 240" shape-rendering="crispEdges">
  <rect width="320" height="240" fill="#161924"/>
  <rect width="320" height="112" fill="#2e294f"/>
  <rect y="112" width="320" height="128" fill="#101318"/>
  <rect x="224" y="24" width="16" height="16" fill="#ffd66b"/>
  <rect x="240" y="40" width="16" height="16" fill="#ffd66b"/>
  <rect x="208" y="40" width="16" height="16" fill="#ffd66b"/>
  <rect x="224" y="56" width="16" height="16" fill="#ffd66b"/>
  <rect x="48" y="176" width="48" height="16" fill="#7cffbe"/>
  <rect x="64" y="160" width="32" height="16" fill="#7cffbe"/>
  <rect x="80" y="144" width="16" height="16" fill="#7cffbe"/>
  <rect x="112" y="176" width="80" height="16" fill="#8cc9ff"/>
  <rect x="128" y="160" width="64" height="16" fill="#8cc9ff"/>
  <rect x="144" y="144" width="48" height="16" fill="#8cc9ff"/>
  <rect x="160" y="128" width="32" height="16" fill="#8cc9ff"/>
  <rect x="208" y="176" width="64" height="16" fill="#ff8ba7"/>
  <rect x="224" y="160" width="48" height="16" fill="#ff8ba7"/>
  <rect x="240" y="144" width="32" height="16" fill="#ff8ba7"/>
  <rect y="192" width="320" height="16" fill="#0b0d11"/>
  <rect y="208" width="320" height="16" fill="#151824"/>
  <rect y="224" width="320" height="16" fill="#0b0d11"/>
</svg>
