<svg xmlns="http://www.w3.org/2000/svg" viewBox="0 0 320 240" shape-rendering="crispEdges">
  <rect width="320" height="240" fill="#141821"/>
  <rect width="320" height="112" fill="#203a3d"/>
  <rect y="112" width="320" height="128" fill="#12161c"/>
  <rect x="48" y="40" width="80" height="16" fill="#f5f3df"/>
  <rect x="40" y="56" width="96" height="16" fill="#f5f3df"/>
  <rect x="136" y="72" width="64" height="16" fill="#f5f3df"/>
  <rect x="200" y="56" width="72" height="16" fill="#f5f3df"/>
  <rect x="208" y="72" width="56" height="16" fill="#f5f3df"/>
  <rect x="32" y="176" width="32" height="16" fill="#ff8ba7"/>
  <rect x="48" y="160" width="32" height="16" fill="#ff8ba7"/>
  <rect x="64" y="144" width="32" height="16" fill="#ff8ba7"/>
  <rect x="96" y="160" width="96" height="16" fill="#8cc9ff"/>
  <rect x="112" y="144" width="80" height="16" fill="#8cc9ff"/>
  <rect x="128" y="128" width="64" height="16" fill="#8cc9ff"/>
  <rect x="192" y="176" width="96" height="16" fill="#7cffbe"/>
  <rect x="208" y="160" width="80" height="16" fill="#7cffbe"/>
  <rect x="224" y="144" width="64" height="16" fill="#7cffbe"/>
  <rect y="192" width="320" height="16" fill="#0b0d11"/>
  <rect y="208" width="320" height="16" fill="#151824"/>
  <rect y="224" width="320" height="16" fill="#0b0d11"/>
</svg>
