<svg xmlns="http://www.w3.org/2000/svg" viewBox="0 0 320 240" shape-rendering="crispEdges">
  <rect width="320" height="240" fill="#151824"/>
  <rect width="320" height="112" fill="#24334d"/>
  <rect y="112" width="320" height="128" fill="#12161c"/>
  <rect x="32" y="24" width="48" height="16" fill="#ffd66b"/>
  <rect x="24" y="40" width="64" height="16" fill="#ffd66b"/>
  <rect x="80" y="144" width="16" height="16" fill="#8cc9ff"/>
  <rect x="96" y="128" width="16" height="16" fill="#8cc9ff"/>
  <rect x="112" y="112" width="16" height="16" fill="#8cc9ff"/>
  <rect x="128" y="96" width="16" height="16" fill="#8cc9ff"/>
  <rect x="144" y="112" width="16" height="16" fill="#8cc9ff"/>
  <rect x="160" y="128" width="16" height="16" fill="#8cc9ff"/>
  <rect x="176" y="144" width="16" height="16" fill="#8cc9ff"/>
  <rect x="176" y="160" width="64" height="16" fill="#7cffbe"/>
  <rect x="192" y="144" width="48" height="16" fill="#7cffbe"/>
  <rect x="208" y="128" width="32" height="16" fill="#7cffbe"/>
  <rect y="192" width="320" height="16" fill="#0b0d11"/>
  <rect y="208" width="320" height="16" fill="#151824"/>
  <rect y="224" width="320" height="16" fill="#0b0d11"/>
</svg>
